<?xml version="1.0" encoding="UTF-8" standalone="no"?>
<!-- Created with Inkscape (http://www.inkscape.org/) -->

<svg
   xmlns:dc="http://purl.org/dc/elements/1.1/"
   xmlns:cc="http://creativecommons.org/ns#"
   xmlns:rdf="http://www.w3.org/1999/02/22-rdf-syntax-ns#"
   xmlns:svg="http://www.w3.org/2000/svg"
   xmlns="http://www.w3.org/2000/svg"
   xmlns:sodipodi="http://sodipodi.sourceforge.net/DTD/sodipodi-0.dtd"
   xmlns:inkscape="http://www.inkscape.org/namespaces/inkscape"
   id="svg2"
   height="600"
   width="800"
   version="1.1"
   inkscape:version="0.91 r13725"
   sodipodi:docname="editor.svg">
  <defs
     id="defs3220" />
  <sodipodi:namedview
     pagecolor="#ffffff"
     bordercolor="#666666"
     borderopacity="1"
     objecttolerance="10"
     gridtolerance="10"
     guidetolerance="10"
     inkscape:pageopacity="0"
     inkscape:pageshadow="2"
     inkscape:window-width="1920"
     inkscape:window-height="1056"
     id="namedview3218"
     showgrid="false"
     inkscape:zoom="1.9516147"
     inkscape:cx="312.67592"
     inkscape:cy="282.72093"
     inkscape:window-x="0"
     inkscape:window-y="24"
     inkscape:window-maximized="1"
     inkscape:current-layer="svg2" />
  <metadata
     id="metadata7">
    <rdf:RDF>
      <cc:Work
         rdf:about="">
        <dc:format>image/svg+xml</dc:format>
        <dc:type
           rdf:resource="http://purl.org/dc/dcmitype/StillImage" />
        <dc:title />
      </cc:Work>
    </rdf:RDF>
  </metadata>
  <g
     id="symbol:domain:bg">
    <rect
       rx="10"
       ry="10"
       x="262.39999"
       y="118"
       width="100.5"
       height="100.5"
       style="color:#000000;fill:#81f251;fill-rule:evenodd;stroke:#35970b;stroke-width:1;stroke-linecap:butt;stroke-linejoin:miter;stroke-miterlimit:4;stroke-dasharray:none;stroke-dashoffset:0;enable-background:accumulate"
       id="" />
  </g>
  <g
     id="symbol:domain:symbol"
     transform="translate(127.00209,-215.12459)">
    <path
       id="path3763"
       d="m211.6,410.1c0,4.951-11.48,8.965-25.63,8.965-14.16,0-25.63-4.014-25.63-8.965v-52c0-4.951,11.48-8.965,25.63-8.965,14.16,0,25.63,4.014,25.63,8.965z"
       style="enable-background:accumulate;fill-rule:nonzero;color:#000000;stroke:#ffffff;stroke-miterlimit:4;stroke-dasharray:none;stroke-width:3.00000024;fill:#ffffff;" />
    <path
       id="path3755"
       d="m113.4,362a19.32,6.945,0,1,1,-38.64,0,19.32,6.945,0,1,1,38.64,0z"
       style="enable-background:accumulate;fill-rule:nonzero;color:#000000;stroke:#ffffff;stroke-miterlimit:4;stroke-dasharray:none;stroke-width:2.29229832;fill:#81f251;"
       transform="matrix(1.3267974,0,0,1.2909091,61.181903,-109.26965)" />
  </g>
  <g
     id="symbol:domain:text"
     style="font-size:16px;font-family:Bitstream Vera Sans;writing-mode:lr-tb;fill:#000000;letter-spacing:0px;text-anchor:middle;line-height:125%;word-spacing:0px;font-stretch:normal;font-variant:normal;font-weight:bold;font-style:normal;text-align:center;"
     transform="translate(127.00209,-186.4103)">
    <path
       id="path14139"
       d="m155.5,380,0,7.117,1.078,0c1.229,0,2.167-0.3047,2.812-0.9141,0.651-0.6094,0.9766-1.495,0.9766-2.656,0-1.156-0.3229-2.036-0.9688-2.641-0.6458-0.6042-1.586-0.9062-2.82-0.9062h-1.078m-3.008-2.273,3.172,0c1.771,0.00002,3.089,0.1276,3.953,0.3828,0.8698,0.25,1.615,0.6771,2.234,1.281,0.5469,0.526,0.9531,1.133,1.219,1.82,0.2656,0.6875,0.3984,1.466,0.3984,2.336-0.00001,0.8802-0.1328,1.667-0.3984,2.359-0.2656,0.6875-0.6719,1.294-1.219,1.82-0.625,0.6042-1.375,1.034-2.25,1.289-0.875,0.25-2.188,0.375-3.938,0.375h-3.172v-11.66" />
    <path
       id="path14141"
       d="m169.8,382.4c-0.6198,0.00001-1.094,0.224-1.422,0.6719-0.3229,0.4427-0.4844,1.083-0.4844,1.922-0.00001,0.8385,0.1614,1.482,0.4844,1.93,0.3281,0.4427,0.8021,0.6641,1.422,0.6641,0.6094,0,1.076-0.2214,1.398-0.6641,0.3229-0.4479,0.4844-1.091,0.4844-1.93-0.00001-0.8385-0.1615-1.479-0.4844-1.922-0.3229-0.4479-0.7891-0.6719-1.398-0.6719m0-2c1.505,0.00001,2.68,0.4063,3.523,1.219,0.849,0.8125,1.273,1.938,1.273,3.375-0.00001,1.438-0.4245,2.562-1.273,3.375-0.8438,0.8125-2.018,1.219-3.523,1.219-1.51,0-2.693-0.4062-3.547-1.219-0.849-0.8125-1.273-1.938-1.273-3.375,0-1.438,0.4245-2.562,1.273-3.375,0.8542-0.8125,2.036-1.219,3.547-1.219" />
    <path
       id="path14143"
       d="m184.8,382.1c0.3542-0.5417,0.7734-0.9531,1.258-1.234,0.4896-0.2864,1.026-0.4297,1.609-0.4297,1.005,0.00001,1.771,0.3099,2.297,0.9297s0.789,1.521,0.7891,2.703v5.328h-2.812v-4.562c0.005-0.0677,0.008-0.138,0.008-0.2109,0.005-0.0729,0.008-0.1771,0.008-0.3125-0.00001-0.6198-0.0912-1.068-0.2734-1.344-0.1823-0.2812-0.4766-0.4219-0.8828-0.4219-0.5313,0.00001-0.9427,0.2188-1.234,0.6562-0.2865,0.4375-0.4349,1.07-0.4453,1.898v4.297h-2.812v-4.562c0-0.9688-0.0833-1.591-0.25-1.867-0.1667-0.2812-0.4636-0.4219-0.8906-0.4219-0.5365,0.00001-0.9505,0.2214-1.242,0.6641-0.2917,0.4375-0.4375,1.065-0.4375,1.883v4.305h-2.812v-8.75h2.812v1.281c0.3438-0.4948,0.737-0.8672,1.18-1.117,0.4479-0.25,0.9401-0.375,1.477-0.375,0.6042,0.00001,1.138,0.1458,1.602,0.4375,0.4635,0.2917,0.8151,0.7005,1.055,1.227" />
    <path
       id="path14145"
       d="m197.2,385.4c-0.5833,0-1.023,0.099-1.32,0.2969-0.2917,0.1979-0.4375,0.4896-0.4375,0.875-0.00001,0.3542,0.1172,0.6328,0.3516,0.8359,0.2396,0.1979,0.5703,0.2969,0.9922,0.2969,0.526,0.00001,0.9687-0.1875,1.328-0.5625,0.3594-0.3802,0.5391-0.8542,0.5391-1.422v-0.3203h-1.453m4.273-1.055,0,4.992-2.82,0,0-1.297c-0.375,0.5312-0.7969,0.9193-1.266,1.164-0.4688,0.2396-1.039,0.3594-1.711,0.3594-0.9062,0-1.643-0.263-2.211-0.7891-0.5625-0.5312-0.8438-1.219-0.8438-2.062,0-1.026,0.3516-1.779,1.055-2.258,0.7083-0.4792,1.818-0.7187,3.328-0.7188h1.648v-0.2188c0-0.4427-0.1745-0.7656-0.5234-0.9688-0.349-0.2083-0.8932-0.3125-1.633-0.3125-0.599,0.00001-1.156,0.0599-1.672,0.1797-0.5156,0.1198-0.9948,0.2995-1.438,0.5391v-2.133c0.599-0.1458,1.201-0.2552,1.805-0.3281,0.6042-0.0781,1.208-0.1172,1.812-0.1172,1.578,0.00001,2.716,0.3125,3.414,0.9375,0.7031,0.6198,1.055,1.63,1.055,3.031" />
    <path
       id="path14147"
       d="m204.1,380.6,2.797,0,0,8.75-2.797,0,0-8.75m0-3.406,2.797,0,0,2.281-2.797,0,0-2.281" />
    <path
       id="path14149"
       d="m218.4,384.1,0,5.328-2.812,0,0-0.8672,0-3.211c-0.00001-0.7552-0.0182-1.276-0.0547-1.562-0.0312-0.2864-0.0885-0.4974-0.1719-0.6328-0.1094-0.1823-0.2578-0.3229-0.4453-0.4219-0.1875-0.1042-0.401-0.1562-0.6406-0.1562-0.5833,0.00001-1.042,0.2266-1.375,0.6797-0.3333,0.4479-0.5,1.07-0.5,1.867v4.305h-2.797v-8.75h2.797v1.281c0.4219-0.5104,0.8698-0.8854,1.344-1.125,0.474-0.2448,0.9974-0.3672,1.57-0.3672,1.01,0.00001,1.776,0.3099,2.297,0.9297,0.526,0.6198,0.789,1.521,0.7891,2.703" />
  </g>
  <rect
     id="process-boxbg"
     style="stroke-linejoin:miter;enable-background:accumulate;fill-rule:evenodd;color:#000000;stroke-dashoffset:0;stroke:#164e80;stroke-linecap:butt;stroke-miterlimit:4;stroke-dasharray:none;stroke-width:1;fill:#4b9ae0;"
     rx="10"
     ry="10"
     height="100.5"
     width="100.5"
     y="118"
     x="389.6" />
  <g
     id="symbol:process:symbol"
     transform="translate(127.00209,-215.12459)">
    <path
       id="path10349"
       d="m391,829.4a50,50,0,1,1,-100,0,50,50,0,1,1,100,0z"
       style="enable-background:accumulate;color:#000000;stroke:#ffffff;stroke-miterlimit:4;stroke-dasharray:none;stroke-width:20;fill:none;"
       transform="matrix(0.54014686,0,0,0.54014686,128.8792,-64.588708)" />
    <path
       id="path10351"
       d="m275,390.1c2.781-6.496,8.371-17.04,14.72-21.1,2.127,9.47,6.041,15,9.062,20.45"
       style="stroke-linejoin:round;enable-background:accumulate;color:#000000;stroke:#4b9ae0;stroke-linecap:butt;stroke-miterlimit:4;stroke-dasharray:none;stroke-width:1.08029366;fill:#ffffff;" />
    <path
       id="path10364"
       d="m319.8,421.5c-6.496-2.781-17.04-8.371-21.1-14.72,9.47-2.127,15-6.041,20.45-9.062"
       style="stroke-linejoin:round;enable-background:accumulate;color:#000000;stroke:#4b9ae0;stroke-linecap:butt;stroke-miterlimit:4;stroke-dasharray:none;stroke-width:1.08029366;fill:#ffffff;" />
    <path
       id="path10366"
       d="m351.2,376.7c-2.781,6.496-8.371,17.04-14.72,21.1-2.127-9.47-6.041-15-9.062-20.45"
       style="stroke-linejoin:round;enable-background:accumulate;color:#000000;stroke:#4b9ae0;stroke-linecap:butt;stroke-miterlimit:4;stroke-dasharray:none;stroke-width:1.08029366;fill:#ffffff;" />
    <path
       id="path10368"
       d="m306.4,345.3c6.496,2.781,17.04,8.371,21.1,14.72-9.47,2.127-15,6.041-20.45,9.062"
       style="stroke-linejoin:round;enable-background:accumulate;color:#000000;stroke:#4b9ae0;stroke-linecap:butt;stroke-miterlimit:4;stroke-dasharray:none;stroke-width:1.08029366;fill:#ffffff;" />
  </g>
  <g
     id="symbol:process:text"
     style="font-size:16px;font-family:Bitstream Vera Sans;writing-mode:lr-tb;fill:#000000;letter-spacing:0px;text-anchor:middle;line-height:125%;word-spacing:0px;font-stretch:normal;font-variant:normal;font-weight:bold;font-style:normal;text-align:center;"
     transform="translate(254.2878,-186.4103)">
    <path
       id="path14152"
       d="m141.6,377.7,4.992,0c1.484,0.00002,2.622,0.3307,3.414,0.9922,0.7969,0.6563,1.195,1.594,1.195,2.812-0.00001,1.224-0.3984,2.167-1.195,2.828-0.7917,0.6562-1.93,0.9844-3.414,0.9844h-1.984v4.047h-3.008v-11.66m3.008,2.18,0,3.258,1.664,0c0.5833,0.00001,1.034-0.1406,1.352-0.4219,0.3177-0.2864,0.4766-0.6901,0.4766-1.211-0.00001-0.5208-0.1589-0.9219-0.4766-1.203-0.3177-0.2812-0.7682-0.4219-1.352-0.4219h-1.664" />
    <path
       id="path14154"
       d="m159.7,383c-0.2448-0.1146-0.4896-0.1979-0.7344-0.25-0.2396-0.0573-0.4818-0.0859-0.7266-0.0859-0.7188,0.00001-1.273,0.2318-1.664,0.6953-0.3854,0.4583-0.5781,1.117-0.5781,1.977v4.031h-2.797v-8.75h2.797v1.438c0.3594-0.5729,0.7708-0.9896,1.234-1.25,0.4687-0.2656,1.029-0.3984,1.68-0.3984,0.0937,0.00001,0.1953,0.005,0.3047,0.0156,0.1094,0.005,0.2682,0.0208,0.4766,0.0469l0.008,2.531" />
    <path
       id="path14156"
       d="m165.3,382.4c-0.6198,0.00001-1.094,0.224-1.422,0.6719-0.3229,0.4427-0.4844,1.083-0.4844,1.922,0,0.8385,0.1615,1.482,0.4844,1.93,0.3281,0.4427,0.8021,0.6641,1.422,0.6641,0.6094,0,1.076-0.2214,1.398-0.6641,0.3229-0.4479,0.4844-1.091,0.4844-1.93,0-0.8385-0.1615-1.479-0.4844-1.922-0.3229-0.4479-0.7891-0.6719-1.398-0.6719m0-2c1.505,0.00001,2.68,0.4063,3.523,1.219,0.849,0.8125,1.273,1.938,1.273,3.375-0.00001,1.438-0.4245,2.562-1.273,3.375-0.8438,0.8125-2.018,1.219-3.523,1.219-1.51,0-2.693-0.4062-3.547-1.219-0.849-0.8125-1.273-1.938-1.273-3.375,0-1.438,0.4245-2.562,1.273-3.375,0.8542-0.8125,2.036-1.219,3.547-1.219" />
    <path
       id="path14158"
       d="m179.2,380.9,0,2.281c-0.3802-0.2604-0.763-0.4531-1.148-0.5781-0.3802-0.125-0.776-0.1875-1.188-0.1875-0.7812,0.00001-1.391,0.2292-1.828,0.6875-0.4323,0.4531-0.6484,1.089-0.6484,1.906,0,0.8177,0.2161,1.456,0.6484,1.914,0.4375,0.4531,1.047,0.6797,1.828,0.6797,0.4375,0,0.8516-0.0651,1.242-0.1953,0.3958-0.1302,0.7604-0.3229,1.094-0.5781v2.289c-0.4375,0.1615-0.8828,0.2812-1.336,0.3594-0.4479,0.0833-0.8984,0.125-1.352,0.125-1.578,0-2.812-0.4036-3.703-1.211-0.8906-0.8125-1.336-1.94-1.336-3.383s0.4453-2.568,1.336-3.375c0.8906-0.8125,2.125-1.219,3.703-1.219,0.4583,0.00001,0.9088,0.0417,1.352,0.125,0.4479,0.0781,0.8932,0.1979,1.336,0.3594" />
    <path
       id="path14160"
       d="m190.4,385,0,0.7969-6.539,0c0.0677,0.6563,0.3047,1.148,0.7109,1.477,0.4062,0.3281,0.974,0.4922,1.703,0.4922,0.5885,0.00001,1.19-0.0859,1.805-0.2578,0.6198-0.1771,1.255-0.4427,1.906-0.7969v2.156c-0.6615,0.25-1.323,0.4375-1.984,0.5625-0.6615,0.1302-1.323,0.1953-1.984,0.1953-1.583,0-2.815-0.401-3.695-1.203-0.875-0.8073-1.312-1.937-1.312-3.391,0-1.427,0.4297-2.549,1.289-3.367,0.8646-0.8177,2.052-1.227,3.562-1.227,1.375,0.00001,2.474,0.4141,3.297,1.242,0.8281,0.8281,1.242,1.935,1.242,3.32m-2.875-0.9297c0-0.5312-0.1562-0.9583-0.4688-1.281-0.3073-0.3281-0.7109-0.4922-1.211-0.4922-0.5417,0.00001-0.9818,0.1537-1.32,0.4609-0.3385,0.3021-0.5495,0.7396-0.6328,1.312h3.633" />
    <path
       id="path14162"
       d="m199.3,380.9,0,2.125c-0.599-0.25-1.177-0.4375-1.734-0.5625-0.5573-0.125-1.083-0.1875-1.578-0.1875-0.5313,0.00001-0.9271,0.0677-1.188,0.2031-0.2552,0.1302-0.3828,0.3333-0.3828,0.6094,0,0.224,0.0964,0.3958,0.2891,0.5156,0.1979,0.1198,0.5495,0.2083,1.055,0.2656l0.4922,0.0703c1.432,0.1823,2.396,0.4818,2.891,0.8984,0.4948,0.4167,0.7422,1.07,0.7422,1.961,0,0.9323-0.3438,1.633-1.031,2.102-0.6875,0.4688-1.714,0.7031-3.078,0.7031-0.5781,0-1.177-0.0469-1.797-0.1406-0.6146-0.0885-1.247-0.224-1.898-0.4062v-2.125c0.5573,0.2708,1.128,0.474,1.711,0.6094,0.5885,0.1354,1.185,0.2031,1.789,0.2031,0.5469,0.00001,0.9583-0.0755,1.234-0.2266,0.276-0.151,0.4141-0.375,0.4141-0.6719,0-0.25-0.0964-0.4349-0.2891-0.5547-0.1875-0.125-0.5651-0.2214-1.133-0.2891l-0.4922-0.0625c-1.245-0.1562-2.117-0.4453-2.617-0.8672s-0.75-1.062-0.75-1.922c0-0.9271,0.3177-1.615,0.9531-2.062,0.6354-0.4479,1.609-0.6719,2.922-0.6719,0.5156,0.00001,1.057,0.0391,1.625,0.1172,0.5677,0.0781,1.185,0.2005,1.852,0.3672" />
    <path
       id="path14164"
       d="m208.8,380.9,0,2.125c-0.599-0.25-1.177-0.4375-1.734-0.5625-0.5573-0.125-1.083-0.1875-1.578-0.1875-0.5313,0.00001-0.9271,0.0677-1.188,0.2031-0.2552,0.1302-0.3828,0.3333-0.3828,0.6094,0,0.224,0.0964,0.3958,0.2891,0.5156,0.1979,0.1198,0.5495,0.2083,1.055,0.2656l0.4922,0.0703c1.432,0.1823,2.396,0.4818,2.891,0.8984,0.4948,0.4167,0.7422,1.07,0.7422,1.961,0,0.9323-0.3438,1.633-1.031,2.102-0.6875,0.4688-1.714,0.7031-3.078,0.7031-0.5781,0-1.177-0.0469-1.797-0.1406-0.6146-0.0885-1.247-0.224-1.898-0.4062v-2.125c0.5573,0.2708,1.128,0.474,1.711,0.6094,0.5885,0.1354,1.185,0.2031,1.789,0.2031,0.5469,0.00001,0.9583-0.0755,1.234-0.2266,0.276-0.151,0.4141-0.375,0.4141-0.6719,0-0.25-0.0964-0.4349-0.2891-0.5547-0.1875-0.125-0.5651-0.2214-1.133-0.2891l-0.4922-0.0625c-1.245-0.1562-2.117-0.4453-2.617-0.8672s-0.75-1.062-0.75-1.922c0-0.9271,0.3177-1.615,0.9531-2.062,0.6354-0.4479,1.609-0.6719,2.922-0.6719,0.5156,0.00001,1.057,0.0391,1.625,0.1172,0.5677,0.0781,1.185,0.2005,1.852,0.3672" />
    <path
       id="path14166"
       d="m220.3,385,0,0.7969-6.539,0c0.0677,0.6563,0.3047,1.148,0.7109,1.477,0.4062,0.3281,0.974,0.4922,1.703,0.4922,0.5885,0.00001,1.19-0.0859,1.805-0.2578,0.6198-0.1771,1.255-0.4427,1.906-0.7969v2.156c-0.6615,0.25-1.323,0.4375-1.984,0.5625-0.6615,0.1302-1.323,0.1953-1.984,0.1953-1.583,0-2.815-0.401-3.695-1.203-0.875-0.8073-1.312-1.937-1.312-3.391,0-1.427,0.4297-2.549,1.289-3.367,0.8646-0.8177,2.052-1.227,3.562-1.227,1.375,0.00001,2.474,0.4141,3.297,1.242,0.8281,0.8281,1.242,1.935,1.242,3.32m-2.875-0.9297c0-0.5312-0.1562-0.9583-0.4688-1.281-0.3073-0.3281-0.7109-0.4922-1.211-0.4922-0.5417,0.00001-0.9818,0.1537-1.32,0.4609-0.3385,0.3021-0.5495,0.7396-0.6328,1.312h3.633" />
    <path
       id="path14168"
       d="m229.2,380.9,0,2.125c-0.599-0.25-1.177-0.4375-1.734-0.5625-0.5573-0.125-1.083-0.1875-1.578-0.1875-0.5313,0.00001-0.9271,0.0677-1.188,0.2031-0.2552,0.1302-0.3828,0.3333-0.3828,0.6094,0,0.224,0.0964,0.3958,0.2891,0.5156,0.1979,0.1198,0.5495,0.2083,1.055,0.2656l0.4922,0.0703c1.432,0.1823,2.396,0.4818,2.891,0.8984,0.4948,0.4167,0.7422,1.07,0.7422,1.961,0,0.9323-0.3438,1.633-1.031,2.102-0.6875,0.4688-1.714,0.7031-3.078,0.7031-0.5781,0-1.177-0.0469-1.797-0.1406-0.6146-0.0885-1.247-0.224-1.898-0.4062v-2.125c0.5573,0.2708,1.128,0.474,1.711,0.6094,0.5885,0.1354,1.185,0.2031,1.789,0.2031,0.5469,0.00001,0.9583-0.0755,1.234-0.2266,0.276-0.151,0.4141-0.375,0.4141-0.6719,0-0.25-0.0964-0.4349-0.2891-0.5547-0.1875-0.125-0.5651-0.2214-1.133-0.2891l-0.4922-0.0625c-1.245-0.1562-2.117-0.4453-2.617-0.8672s-0.75-1.062-0.75-1.922c0-0.9271,0.3177-1.615,0.9531-2.062,0.6354-0.4479,1.609-0.6719,2.922-0.6719,0.5156,0.00001,1.057,0.0391,1.625,0.1172,0.5677,0.0781,1.185,0.2005,1.852,0.3672" />
  </g>
  <rect
     id="view-boxbg"
     style="stroke-linejoin:miter;enable-background:accumulate;fill-rule:evenodd;color:#000000;stroke-dashoffset:0;stroke:#255d8f;stroke-linecap:butt;stroke-miterlimit:4;stroke-dasharray:none;stroke-width:1;fill:#87b6e0;"
     rx="10"
     ry="10"
     height="100.5"
     width="100.5"
     y="242.5"
     x="261.7" />
  <g
     id="symbol:view:symbol"
     transform="translate(127.00209,-215.12459)">
    <rect
       id="rect10598"
       style="enable-background:accumulate;fill-rule:evenodd;color:#000000;fill:#ffffff;"
       rx="5.37"
       ry="5.37"
       height="57.37"
       width="83.51"
       y="479.2"
       x="144.1" />
    <path
       id="path10602"
       d="m154.5,492.6,36.93,0"
       style="stroke-linejoin:miter;stroke:#87b6e0;stroke-linecap:round;stroke-miterlimit:4;stroke-dasharray:none;stroke-width:3.91480136;fill:#87b6e0;" />
    <path
       id="path10604"
       d="m154.3,502.6,36.93,0"
       style="stroke-linejoin:miter;stroke:#87b6e0;stroke-linecap:round;stroke-miterlimit:4;stroke-dasharray:none;stroke-width:3.91480136;fill:#87b6e0;" />
    <path
       id="path10606"
       d="m155,512.6,60.25,0"
       style="stroke-linejoin:miter;stroke:#87b6e0;stroke-linecap:round;stroke-miterlimit:4;stroke-dasharray:none;stroke-width:5;fill:#87b6e0;" />
    <path
       id="path10608"
       d="m154.8,522.6,60.25,0"
       style="stroke-linejoin:miter;stroke:#87b6e0;stroke-linecap:round;stroke-miterlimit:4;stroke-dasharray:none;stroke-width:5;fill:#87b6e0;" />
    <rect
       id="rect10610"
       style="stroke-linejoin:miter;enable-background:accumulate;fill-rule:evenodd;color:#000000;stroke-dashoffset:0;stroke:#87b6e0;stroke-linecap:butt;stroke-miterlimit:4;stroke-dasharray:none;stroke-width:1.80234897;fill:#87b6e0;"
       rx="2.214"
       ry="2.521"
       height="12.32"
       width="18.57"
       y="491.5"
       x="198.4" />
  </g>
  <g
     id="symbol:view:text"
     style="font-size:16px;font-family:Bitstream Vera Sans;writing-mode:lr-tb;fill:#000000;letter-spacing:0px;text-anchor:middle;line-height:125%;word-spacing:0px;font-stretch:normal;font-variant:normal;font-weight:bold;font-style:normal;text-align:center;"
     transform="translate(126.29498,-61.95951)">
    <path
       id="path14171"
       d="m159.1,377.7,3.023,0,3.094,8.609,3.086-8.609,3.023,0-4.32,11.66-3.586,0-4.32-11.66" />
    <path
       id="path14173"
       d="m172.4,380.6,2.797,0,0,8.75-2.797,0,0-8.75m0-3.406,2.797,0,0,2.281-2.797,0,0-2.281" />
    <path
       id="path14175"
       d="m186.7,385,0,0.7969-6.539,0c0.0677,0.6563,0.3047,1.148,0.7109,1.477,0.4062,0.3281,0.974,0.4922,1.703,0.4922,0.5885,0.00001,1.19-0.0859,1.805-0.2578,0.6198-0.1771,1.255-0.4427,1.906-0.7969v2.156c-0.6615,0.25-1.323,0.4375-1.984,0.5625-0.6615,0.1302-1.323,0.1953-1.984,0.1953-1.583,0-2.815-0.401-3.695-1.203-0.875-0.8073-1.312-1.937-1.312-3.391,0-1.427,0.4297-2.549,1.289-3.367,0.8646-0.8177,2.052-1.227,3.562-1.227,1.375,0.00001,2.474,0.4141,3.297,1.242,0.8281,0.8281,1.242,1.935,1.242,3.32m-2.875-0.9297c-0.00001-0.5312-0.1563-0.9583-0.4688-1.281-0.3073-0.3281-0.7109-0.4922-1.211-0.4922-0.5417,0.00001-0.9818,0.1537-1.32,0.4609-0.3386,0.3021-0.5495,0.7396-0.6328,1.312h3.633" />
    <path
       id="path14177"
       d="m188,380.6,2.719,0,1.469,6.031,1.477-6.031,2.336,0,1.469,5.969,1.477-5.969,2.719,0-2.305,8.75-3.055,0-1.477-6.016-1.469,6.016-3.055,0-2.305-8.75" />
    <path
       id="path14179"
       d="m210.4,380.9,0,2.125c-0.599-0.25-1.177-0.4375-1.734-0.5625-0.5573-0.125-1.083-0.1875-1.578-0.1875-0.5312,0.00001-0.9271,0.0677-1.188,0.2031-0.2552,0.1302-0.3828,0.3333-0.3828,0.6094,0,0.224,0.0964,0.3958,0.2891,0.5156,0.1979,0.1198,0.5495,0.2083,1.055,0.2656l0.4922,0.0703c1.432,0.1823,2.396,0.4818,2.891,0.8984,0.4948,0.4167,0.7422,1.07,0.7422,1.961-0.00001,0.9323-0.3438,1.633-1.031,2.102-0.6875,0.4688-1.714,0.7031-3.078,0.7031-0.5781,0-1.177-0.0469-1.797-0.1406-0.6146-0.0885-1.247-0.224-1.898-0.4062v-2.125c0.5573,0.2708,1.128,0.474,1.711,0.6094,0.5885,0.1354,1.185,0.2031,1.789,0.2031,0.5469,0.00001,0.9583-0.0755,1.234-0.2266,0.276-0.151,0.414-0.375,0.4141-0.6719-0.00001-0.25-0.0964-0.4349-0.2891-0.5547-0.1875-0.125-0.5651-0.2214-1.133-0.2891l-0.4922-0.0625c-1.245-0.1562-2.117-0.4453-2.617-0.8672s-0.75-1.062-0.75-1.922c0-0.9271,0.3177-1.615,0.9531-2.062,0.6354-0.4479,1.609-0.6719,2.922-0.6719,0.5156,0.00001,1.057,0.0391,1.625,0.1172,0.5677,0.0781,1.185,0.2005,1.852,0.3672" />
  </g>
  <rect
     id="agent-boxbg"
     style="stroke-linejoin:miter;enable-background:accumulate;fill-rule:evenodd;color:#000000;stroke-dashoffset:0;stroke:#58571a;stroke-linecap:butt;stroke-miterlimit:4;stroke-dasharray:none;stroke-width:1;fill:#afad34;"
     rx="10"
     ry="10"
     height="100.5"
     width="100.5"
     y="241.5"
     x="387.9" />
  <g
     id="symbol:agent:symbol"
     transform="translate(127.00209,-215.12459)">
    <path
       id="path11016"
       d="m351,504.4a37,37,0,1,1,-74,0,37,37,0,1,1,74,0z"
       style="enable-background:accumulate;fill-rule:nonzero;color:#000000;fill:#ffffff;"
       transform="matrix(1.054054,0,0,1.054054,-19.857438,-24.736336)" />
    <path
       id="path11018"
       d="m293.9,490.1,17.38,17.38,22.9-22.9"
       style="stroke-linejoin:round;stroke:#afad34;stroke-linecap:round;stroke-miterlimit:4;stroke-dasharray:none;stroke-width:5;fill:none;" />
  </g>
  <g
     id="symbol:agent:text"
     style="font-size:16px;font-family:Bitstream Vera Sans;writing-mode:lr-tb;fill:#000000;letter-spacing:0px;text-anchor:middle;line-height:125%;word-spacing:0px;font-stretch:normal;font-variant:normal;font-weight:bold;font-style:normal;text-align:center;"
     transform="translate(252.50209,-62.9103)">
    <path
       id="path14182"
       d="m162.3,387.3-4.703,0-0.7422,2.125-3.023,0,4.32-11.66,3.586,0,4.32,11.66-3.023,0-0.7344-2.125m-3.953-2.164,3.195,0-1.594-4.641-1.602,4.641" />
    <path
       id="path14184"
       d="m173.4,387.9c-0.3854,0.5104-0.8099,0.8854-1.273,1.125-0.4636,0.2396-1,0.3594-1.609,0.3594-1.068,0-1.951-0.4193-2.648-1.258-0.6979-0.8437-1.047-1.917-1.047-3.219,0-1.307,0.349-2.378,1.047-3.211,0.6979-0.8385,1.581-1.258,2.648-1.258,0.6094,0.00001,1.146,0.1198,1.609,0.3594,0.4635,0.2396,0.888,0.6172,1.273,1.133v-1.297h2.812v7.867c-0.00001,1.406-0.4453,2.479-1.336,3.219-0.8854,0.7448-2.172,1.117-3.859,1.117-0.5469,0-1.076-0.0417-1.586-0.125-0.5104-0.0833-1.023-0.2109-1.539-0.3828v-2.18c0.4896,0.2812,0.9688,0.4896,1.438,0.625,0.4688,0.1406,0.9401,0.2109,1.414,0.2109,0.9167,0,1.589-0.2005,2.016-0.6016,0.4271-0.401,0.6406-1.029,0.6406-1.883v-0.6016m-1.844-5.445c-0.5781,0.00001-1.029,0.2136-1.352,0.6406-0.3229,0.4271-0.4844,1.031-0.4844,1.812-0.00001,0.8021,0.1562,1.411,0.4688,1.828,0.3125,0.4115,0.7682,0.6172,1.367,0.6172,0.5833,0,1.036-0.2135,1.359-0.6406,0.3229-0.4271,0.4844-1.029,0.4844-1.805,0-0.7812-0.1615-1.385-0.4844-1.812-0.3229-0.4271-0.776-0.6406-1.359-0.6406" />
    <path
       id="path14186"
       d="m187.6,385,0,0.7969-6.539,0c0.0677,0.6563,0.3047,1.148,0.7109,1.477,0.4062,0.3281,0.974,0.4922,1.703,0.4922,0.5885,0.00001,1.19-0.0859,1.805-0.2578,0.6198-0.1771,1.255-0.4427,1.906-0.7969v2.156c-0.6615,0.25-1.323,0.4375-1.984,0.5625-0.6615,0.1302-1.323,0.1953-1.984,0.1953-1.583,0-2.815-0.401-3.695-1.203-0.875-0.8073-1.312-1.937-1.312-3.391,0-1.427,0.4297-2.549,1.289-3.367,0.8646-0.8177,2.052-1.227,3.562-1.227,1.375,0.00001,2.474,0.4141,3.297,1.242,0.8281,0.8281,1.242,1.935,1.242,3.32m-2.875-0.9297c0-0.5312-0.1562-0.9583-0.4688-1.281-0.3073-0.3281-0.7109-0.4922-1.211-0.4922-0.5417,0.00001-0.9818,0.1537-1.32,0.4609-0.3385,0.3021-0.5495,0.7396-0.6328,1.312h3.633" />
    <path
       id="path14188"
       d="m198.5,384.1,0,5.328-2.812,0,0-0.8672,0-3.211c0-0.7552-0.0182-1.276-0.0547-1.562-0.0313-0.2864-0.0885-0.4974-0.1719-0.6328-0.1094-0.1823-0.2578-0.3229-0.4453-0.4219-0.1875-0.1042-0.401-0.1562-0.6406-0.1562-0.5833,0.00001-1.042,0.2266-1.375,0.6797-0.3333,0.4479-0.5,1.07-0.5,1.867v4.305h-2.797v-8.75h2.797v1.281c0.4219-0.5104,0.8698-0.8854,1.344-1.125,0.474-0.2448,0.9974-0.3672,1.57-0.3672,1.01,0.00001,1.776,0.3099,2.297,0.9297,0.526,0.6198,0.789,1.521,0.7891,2.703" />
    <path
       id="path14190"
       d="m204.2,378.2,0,2.484,2.883,0,0,2-2.883,0,0,3.711c-0.00001,0.4063,0.0807,0.6823,0.2422,0.8281,0.1615,0.1406,0.4818,0.2109,0.9609,0.2109h1.438v2h-2.398c-1.104,0-1.888-0.2292-2.352-0.6875-0.4583-0.4635-0.6875-1.247-0.6875-2.352v-3.711h-1.391v-2h1.391v-2.484h2.797" />
    <path
       id="path14192"
       d="m215.6,380.9,0,2.125c-0.599-0.25-1.177-0.4375-1.734-0.5625-0.5573-0.125-1.083-0.1875-1.578-0.1875-0.5313,0.00001-0.9271,0.0677-1.188,0.2031-0.2552,0.1302-0.3828,0.3333-0.3828,0.6094,0,0.224,0.0964,0.3958,0.2891,0.5156,0.1979,0.1198,0.5495,0.2083,1.055,0.2656l0.4922,0.0703c1.432,0.1823,2.396,0.4818,2.891,0.8984,0.4948,0.4167,0.7422,1.07,0.7422,1.961,0,0.9323-0.3438,1.633-1.031,2.102-0.6875,0.4688-1.714,0.7031-3.078,0.7031-0.5781,0-1.177-0.0469-1.797-0.1406-0.6146-0.0885-1.247-0.224-1.898-0.4062v-2.125c0.5573,0.2708,1.128,0.474,1.711,0.6094,0.5885,0.1354,1.185,0.2031,1.789,0.2031,0.5469,0.00001,0.9583-0.0755,1.234-0.2266,0.276-0.151,0.4141-0.375,0.4141-0.6719,0-0.25-0.0964-0.4349-0.2891-0.5547-0.1875-0.125-0.5651-0.2214-1.133-0.2891l-0.4922-0.0625c-1.245-0.1562-2.117-0.4453-2.617-0.8672s-0.75-1.062-0.75-1.922c0-0.9271,0.3177-1.615,0.9531-2.062,0.6354-0.4479,1.609-0.6719,2.922-0.6719,0.5156,0.00001,1.057,0.0391,1.625,0.1172,0.5677,0.0781,1.185,0.2005,1.852,0.3672" />
  </g>
  <rect
     id="security-boxbg"
     style="stroke-linejoin:miter;enable-background:accumulate;fill-rule:evenodd;color:#000000;stroke-dashoffset:0;stroke:#5b5b5b;stroke-linecap:butt;stroke-miterlimit:4;stroke-dasharray:none;stroke-width:1;fill:#b7b7b7;"
     rx="10"
     ry="10"
     height="100.5"
     width="100.5"
     y="369.4"
     x="260.9" />
  <g
     id="symbol:security:symbol"
     transform="translate(127.00209,-215.12459)">
    <path
       id="path11063"
       d="m207.5,617.6a21.5,21.5,0,1,1,-43,0,21.5,21.5,0,1,1,43,0z"
       style="stroke-linejoin:round;enable-background:accumulate;fill-rule:nonzero;color:#000000;stroke-dashoffset:0;stroke:#ffffff;stroke-linecap:round;stroke-miterlimit:4;stroke-dasharray:none;stroke-width:6.4000001;fill:#b7b7b7;"
       transform="matrix(1.0229737,0,0,1.0229737,-5.8853375,-8.2693921)" />
    <rect
       id="rect11043"
       style="enable-background:accumulate;fill-rule:evenodd;color:#000000;fill:#ffffff;"
       rx="3.916"
       ry="4.455"
       height="47.6"
       width="60.91"
       y="623.7"
       x="153.7" />
    <path
       id="path11841"
       d="m183.7,640.6c-1.975,0-3.571,1.596-3.571,3.571,0,1.118,0.5104,2.115,1.314,2.771-1.359,0.7863-2.285,2.23-2.285,3.914,0,6.45,0.0105,6.599,4.542,6.599,4.612,0,4.542,0.0634,4.542-6.599,0-1.688-0.9194-3.158-2.285-3.942,0.7907-0.656,1.314-1.635,1.314-2.742,0-1.975-1.596-3.571-3.571-3.571z"
       style="enable-background:accumulate;fill-rule:nonzero;color:#000000;fill:#b7b7b7;" />
  </g>
  <g
     id="symbol:security:text"
     style="font-size:16px;font-family:Bitstream Vera Sans;writing-mode:lr-tb;fill:#000000;letter-spacing:0px;text-anchor:middle;line-height:125%;word-spacing:0px;font-stretch:normal;font-variant:normal;font-weight:bold;font-style:normal;text-align:center;"
     transform="translate(125.58788,64.96616)">
    <path
       id="path14195"
       d="m157.6,378.1,0,2.469c-0.6406-0.2864-1.266-0.5026-1.875-0.6484-0.6094-0.1458-1.185-0.2187-1.727-0.2188-0.7188,0.00001-1.25,0.099-1.594,0.2969-0.3438,0.1979-0.5156,0.5052-0.5156,0.9219,0,0.3125,0.1146,0.5573,0.3438,0.7344,0.2344,0.1719,0.6562,0.3203,1.266,0.4453l1.281,0.2578c1.297,0.2604,2.219,0.6563,2.766,1.188,0.5469,0.5313,0.8203,1.286,0.8203,2.266-0.00001,1.286-0.3828,2.245-1.148,2.875-0.7604,0.625-1.924,0.9375-3.492,0.9375-0.7396,0-1.482-0.0703-2.227-0.2109-0.7448-0.1406-1.49-0.349-2.234-0.625v-2.539c0.7448,0.3958,1.464,0.6953,2.156,0.8984,0.6979,0.1979,1.37,0.2969,2.016,0.2969,0.6562,0,1.159-0.1094,1.508-0.3281,0.349-0.2188,0.5234-0.5312,0.5234-0.9375,0-0.3646-0.1198-0.6458-0.3594-0.8438-0.2344-0.1979-0.7057-0.375-1.414-0.5312l-1.164-0.2578c-1.167-0.25-2.021-0.6484-2.562-1.195-0.5364-0.5469-0.8047-1.284-0.8047-2.211,0-1.161,0.375-2.055,1.125-2.68s1.828-0.9375,3.234-0.9375c0.6406,0.00001,1.299,0.0495,1.977,0.1484,0.6771,0.0938,1.378,0.237,2.102,0.4297" />
    <path
       id="path14197"
       d="m169.6,385,0,0.7969-6.539,0c0.0677,0.6563,0.3047,1.148,0.7109,1.477,0.4062,0.3281,0.974,0.4922,1.703,0.4922,0.5885,0.00001,1.19-0.0859,1.805-0.2578,0.6198-0.1771,1.255-0.4427,1.906-0.7969v2.156c-0.6615,0.25-1.323,0.4375-1.984,0.5625-0.6615,0.1302-1.323,0.1953-1.984,0.1953-1.583,0-2.815-0.401-3.695-1.203-0.875-0.8073-1.312-1.937-1.312-3.391,0-1.427,0.4297-2.549,1.289-3.367,0.8646-0.8177,2.052-1.227,3.562-1.227,1.375,0.00001,2.474,0.4141,3.297,1.242,0.8281,0.8281,1.242,1.935,1.242,3.32m-2.875-0.9297c0-0.5312-0.1562-0.9583-0.4688-1.281-0.3073-0.3281-0.7109-0.4922-1.211-0.4922-0.5417,0.00001-0.9818,0.1537-1.32,0.4609-0.3385,0.3021-0.5495,0.7396-0.6328,1.312h3.633" />
    <path
       id="path14199"
       d="m178.8,380.9,0,2.281c-0.3802-0.2604-0.763-0.4531-1.148-0.5781-0.3802-0.125-0.776-0.1875-1.188-0.1875-0.7812,0.00001-1.391,0.2292-1.828,0.6875-0.4323,0.4531-0.6484,1.089-0.6484,1.906,0,0.8177,0.2161,1.456,0.6484,1.914,0.4375,0.4531,1.047,0.6797,1.828,0.6797,0.4375,0,0.8516-0.0651,1.242-0.1953,0.3958-0.1302,0.7604-0.3229,1.094-0.5781v2.289c-0.4375,0.1615-0.8828,0.2812-1.336,0.3594-0.4479,0.0833-0.8984,0.125-1.352,0.125-1.578,0-2.812-0.4036-3.703-1.211-0.8906-0.8125-1.336-1.94-1.336-3.383s0.4453-2.568,1.336-3.375c0.8906-0.8125,2.125-1.219,3.703-1.219,0.4583,0.00001,0.9088,0.0417,1.352,0.125,0.4479,0.0781,0.8932,0.1979,1.336,0.3594" />
    <path
       id="path14201"
       d="m181.1,386,0-5.344,2.812,0,0,0.875c0,0.474-0.003,1.07-0.008,1.789-0.005,0.7136-0.008,1.19-0.008,1.43,0,0.7031,0.0182,1.211,0.0547,1.523,0.0365,0.3073,0.099,0.5313,0.1875,0.6719,0.1146,0.1823,0.263,0.3229,0.4453,0.4219,0.1875,0.099,0.401,0.1484,0.6406,0.1484,0.5833,0,1.042-0.224,1.375-0.6719,0.3333-0.4479,0.5-1.07,0.5-1.867v-4.32h2.797v8.75h-2.797v-1.266c-0.4219,0.5104-0.8698,0.888-1.344,1.133-0.4688,0.2396-0.987,0.3594-1.555,0.3594-1.01,0-1.781-0.3099-2.312-0.9297-0.526-0.6198-0.7891-1.521-0.7891-2.703" />
    <path
       id="path14203"
       d="m199.1,383c-0.2448-0.1146-0.4896-0.1979-0.7344-0.25-0.2396-0.0573-0.4818-0.0859-0.7266-0.0859-0.7188,0.00001-1.273,0.2318-1.664,0.6953-0.3854,0.4583-0.5781,1.117-0.5781,1.977v4.031h-2.797v-8.75h2.797v1.438c0.3594-0.5729,0.7708-0.9896,1.234-1.25,0.4687-0.2656,1.029-0.3984,1.68-0.3984,0.0937,0.00001,0.1953,0.005,0.3047,0.0156,0.1094,0.005,0.2682,0.0208,0.4766,0.0469l0.008,2.531" />
    <path
       id="path14205"
       d="m200.5,380.6,2.797,0,0,8.75-2.797,0,0-8.75m0-3.406,2.797,0,0,2.281-2.797,0,0-2.281" />
    <path
       id="path14207"
       d="m209.1,378.2,0,2.484,2.883,0,0,2-2.883,0,0,3.711c-0.00001,0.4063,0.0807,0.6823,0.2422,0.8281,0.1615,0.1406,0.4818,0.2109,0.9609,0.2109h1.438v2h-2.398c-1.104,0-1.888-0.2292-2.352-0.6875-0.4583-0.4635-0.6875-1.247-0.6875-2.352v-3.711h-1.391v-2h1.391v-2.484h2.797" />
    <path
       id="path14209"
       d="m212.5,380.6,2.797,0,2.352,5.938,2-5.938,2.797,0-3.68,9.578c-0.3698,0.974-0.8021,1.654-1.297,2.039-0.4896,0.3906-1.138,0.5859-1.945,0.5859h-1.617v-1.836h0.875c0.474,0,0.8177-0.0755,1.031-0.2266,0.2188-0.151,0.388-0.4219,0.5078-0.8125l0.0781-0.2422-3.898-9.086" />
  </g>
  <rect
     id="portal-boxbg"
     style="stroke-linejoin:miter;enable-background:accumulate;fill-rule:evenodd;color:#000000;stroke-dashoffset:0;stroke:#a00621;stroke-linecap:butt;stroke-miterlimit:4;stroke-dasharray:none;stroke-width:1;fill:#f85370;"
     rx="10"
     ry="10"
     height="100.5"
     width="100.5"
     y="369.4"
     x="388.9" />
  <g
     id="symbol:portal:symbol"
     transform="translate(127.00209,-215.12459)">
    <path
       id="path11870"
       d="m355,632.6a38.75,38.75,0,1,1,-77.5,0,38.75,38.75,0,1,1,77.5,0z"
       style="enable-background:accumulate;fill-rule:nonzero;color:#000000;stroke:#ffffff;stroke-width:5;fill:#f85370;"
       transform="translate(-4.0486832,2.152977)" />
    <path
       id="path11872"
       d="m312.2,596.5,0,76.5"
       style="stroke-linejoin:miter;stroke:#ffffff;stroke-linecap:butt;stroke-miterlimit:4;stroke-dasharray:none;stroke-width:5;fill:none;" />
    <path
       id="path11874"
       d="m312.2,596.5c-18.38,15.07-37.12,48.17,0,76.5"
       style="stroke-linejoin:miter;stroke:#ffffff;stroke-linecap:butt;stroke-miterlimit:4;stroke-dasharray:none;stroke-width:5;fill:none;" />
    <path
       id="path11876"
       d="m311.8,673c18.38-15.07,37.12-48.17,0-76.5"
       style="stroke-linejoin:miter;stroke:#ffffff;stroke-linecap:butt;stroke-miterlimit:4;stroke-dasharray:none;stroke-width:5;fill:none;" />
    <path
       id="path11878"
       d="m273.5,634.8,77.43,0"
       style="stroke-linejoin:miter;marker-start:none;stroke-dashoffset:0;stroke:#ffffff;stroke-linecap:butt;stroke-miterlimit:4;stroke-dasharray:none;stroke-width:5;marker-mid:none;fill:none;" />
    <path
       id="path14014"
       d="m278.1,618.8,68.13,0"
       style="stroke-linejoin:miter;marker-start:none;stroke-dashoffset:0;stroke:#ffffff;stroke-linecap:butt;stroke-miterlimit:4;stroke-dasharray:none;stroke-width:5;marker-mid:none;fill:none;" />
    <path
       id="path14016"
       d="m278.1,617,68.13,0"
       style="stroke-linejoin:miter;marker-start:none;stroke-dashoffset:0;stroke:#ffffff;stroke-linecap:butt;stroke-miterlimit:4;stroke-dasharray:none;stroke-width:5;marker-mid:none;fill:none;" />
    <path
       id="path14018"
       d="m278.1,652.5,68.13,0"
       style="stroke-linejoin:miter;marker-start:none;stroke-dashoffset:0;stroke:#ffffff;stroke-linecap:butt;stroke-miterlimit:4;stroke-dasharray:none;stroke-width:5;marker-mid:none;fill:none;" />
  </g>
  <g
     id="symbol:portal:text"
     style="font-size:16px;font-family:Bitstream Vera Sans;writing-mode:lr-tb;fill:#000000;letter-spacing:0px;text-anchor:middle;line-height:125%;word-spacing:0px;font-stretch:normal;font-variant:normal;font-weight:bold;font-style:normal;text-align:center;"
     transform="translate(253.58788,64.96616)">
    <path
       id="path14212"
       d="m159.5,377.7,4.992,0c1.484,0.00002,2.622,0.3307,3.414,0.9922,0.7969,0.6563,1.195,1.594,1.195,2.812-0.00001,1.224-0.3984,2.167-1.195,2.828-0.7917,0.6562-1.93,0.9844-3.414,0.9844h-1.984v4.047h-3.008v-11.66m3.008,2.18,0,3.258,1.664,0c0.5833,0.00001,1.034-0.1406,1.352-0.4219,0.3177-0.2864,0.4766-0.6901,0.4766-1.211-0.00001-0.5208-0.1589-0.9219-0.4766-1.203-0.3177-0.2812-0.7682-0.4219-1.352-0.4219h-1.664" />
    <path
       id="path14214"
       d="m175.3,382.4c-0.6198,0.00001-1.094,0.224-1.422,0.6719-0.3229,0.4427-0.4844,1.083-0.4844,1.922,0,0.8385,0.1615,1.482,0.4844,1.93,0.3281,0.4427,0.8021,0.6641,1.422,0.6641,0.6094,0,1.076-0.2214,1.398-0.6641,0.3229-0.4479,0.4844-1.091,0.4844-1.93,0-0.8385-0.1615-1.479-0.4844-1.922-0.3229-0.4479-0.7891-0.6719-1.398-0.6719m0-2c1.505,0.00001,2.68,0.4063,3.523,1.219,0.849,0.8125,1.273,1.938,1.273,3.375-0.00001,1.438-0.4245,2.562-1.273,3.375-0.8438,0.8125-2.018,1.219-3.523,1.219-1.51,0-2.693-0.4062-3.547-1.219-0.849-0.8125-1.273-1.938-1.273-3.375,0-1.438,0.4245-2.562,1.273-3.375,0.8542-0.8125,2.036-1.219,3.547-1.219" />
    <path
       id="path14216"
       d="m188.6,383c-0.2448-0.1146-0.4896-0.1979-0.7344-0.25-0.2396-0.0573-0.4818-0.0859-0.7266-0.0859-0.7188,0.00001-1.273,0.2318-1.664,0.6953-0.3854,0.4583-0.5781,1.117-0.5781,1.977v4.031h-2.797v-8.75h2.797v1.438c0.3594-0.5729,0.7708-0.9896,1.234-1.25,0.4687-0.2656,1.029-0.3984,1.68-0.3984,0.0937,0.00001,0.1953,0.005,0.3047,0.0156,0.1094,0.005,0.2682,0.0208,0.4766,0.0469l0.008,2.531" />
    <path
       id="path14218"
       d="m193.1,378.2,0,2.484,2.883,0,0,2-2.883,0,0,3.711c-0.00001,0.4063,0.0807,0.6823,0.2422,0.8281,0.1615,0.1406,0.4818,0.2109,0.9609,0.2109h1.438v2h-2.398c-1.104,0-1.888-0.2292-2.352-0.6875-0.4583-0.4635-0.6875-1.247-0.6875-2.352v-3.711h-1.391v-2h1.391v-2.484h2.797" />
    <path
       id="path14220"
       d="m201.6,385.4c-0.5833,0-1.023,0.099-1.32,0.2969-0.2917,0.1979-0.4375,0.4896-0.4375,0.875,0,0.3542,0.1172,0.6328,0.3516,0.8359,0.2396,0.1979,0.5703,0.2969,0.9922,0.2969,0.526,0.00001,0.9688-0.1875,1.328-0.5625,0.3594-0.3802,0.539-0.8542,0.5391-1.422v-0.3203h-1.453m4.273-1.055,0,4.992-2.82,0,0-1.297c-0.375,0.5312-0.7969,0.9193-1.266,1.164-0.4688,0.2396-1.039,0.3594-1.711,0.3594-0.9063,0-1.643-0.263-2.211-0.7891-0.5625-0.5312-0.8438-1.219-0.8438-2.062,0-1.026,0.3516-1.779,1.055-2.258,0.7083-0.4792,1.818-0.7187,3.328-0.7188h1.648v-0.2188c-0.00001-0.4427-0.1745-0.7656-0.5234-0.9688-0.349-0.2083-0.8932-0.3125-1.633-0.3125-0.599,0.00001-1.156,0.0599-1.672,0.1797-0.5156,0.1198-0.9948,0.2995-1.438,0.5391v-2.133c0.599-0.1458,1.201-0.2552,1.805-0.3281,0.6042-0.0781,1.208-0.1172,1.812-0.1172,1.578,0.00001,2.716,0.3125,3.414,0.9375,0.7031,0.6198,1.055,1.63,1.055,3.031" />
    <path
       id="path14222"
       d="m208.5,377.2,2.797,0,0,12.16-2.797,0,0-12.16" />
  </g>
</svg>
